<?xml version="1.0" standalone="no"?><!DOCTYPE svg PUBLIC "-//W3C//DTD SVG 1.1//EN" "http://www.w3.org/Graphics/SVG/1.1/DTD/svg11.dtd"><svg t="1586847909141" class="icon" viewBox="0 0 1024 1024" version="1.1" xmlns="http://www.w3.org/2000/svg" p-id="1875" xmlns:xlink="http://www.w3.org/1999/xlink" width="200" height="200"><defs><style type="text/css"></style></defs><path d="M367.937671 1023.96859H0V655.999509h79.970062v-64.013742H0V511.984295h144.046624v143.858164h287.936199v80.032882h-64.045152v144.046625h64.013742v64.013741h-64.013742V1023.96859z m-287.967609-80.032883h207.934726v-208.060366h-207.934726z m719.919021 79.875833v-143.920984h80.001473v64.013741H1023.96859v79.875832z m-367.93767 0v-79.875833h160.002944v79.875833z m160.002944-79.875833v-64.045151h64.013742v64.013741z m351.79289-64.013741v-80.032883h-143.858164v-64.013742h80.001473v-144.046624h-80.001473V511.984295h80.001473v79.844422H1023.96859v64.045152h-80.032883v144.015214H1023.96859v80.001473z m-287.936198 0v-144.046625h80.001472v64.013742h63.888102v80.001473z m-144.046625 0v-224.048097h-79.781601v-64.045152H511.984295v64.045152h144.046624v80.001472h-64.045152v144.046625z m-367.93767 0v-80.032883h80.221343v80.001473z m591.985767-224.016687v-64.076562h-79.813012V511.984295h80.001473v79.844422h63.888101v64.045152z m-223.828226-64.076562v-223.891046h-80.001472V287.936198H511.984295v80.001473h80.001472v64.045152h64.013742V511.984295h-64.013742v79.844422z m-144.046624 0V511.984295H288.093249v-80.001472h143.889574v159.845894z m-143.889574 0V511.984295h64.045152v79.844422z m655.842459-79.844422v-80.001472H1023.96859V511.984295z m-80.064293-80.001472h-63.825281v-64.045152h-79.970063V287.936198h-64.076562V223.891046h64.076562V144.046624H511.984295v79.844422h-79.875832v64.045152h-64.013742v80.032883H224.048097v64.013742H144.046624v-64.045152H0V0h367.937671l0.15705 223.891046h63.888102V143.889574H511.984295V80.001472h144.046624V0H1023.96859v367.937671h-224.110917v64.013742z m-63.825281-144.046625h207.934725v-207.934726h-207.934725z m-655.99951 0h207.934726V80.032882h-207.934726z m719.887611-64.045152V143.889574h80.001473v80.001472z m-655.873869 0V143.889574h80.032883v80.001472z" fill="#7b7b7b" p-id="1876"></path></svg>