<?xml version="1.0" standalone="no"?><!DOCTYPE svg PUBLIC "-//W3C//DTD SVG 1.1//EN" "http://www.w3.org/Graphics/SVG/1.1/DTD/svg11.dtd"><svg t="1586775663711" class="icon" viewBox="0 0 1024 1024" version="1.1" xmlns="http://www.w3.org/2000/svg" p-id="4532" xmlns:xlink="http://www.w3.org/1999/xlink" width="200" height="200"><defs><style type="text/css"></style></defs><path d="M339.626667 1016.888889a240.924444 240.924444 0 0 1-32.426667 0C182.328889 1005.511111 92.444444 938.666667 62.008889 881.777778 28.444444 818.062222 106.951111 706.275556 122.88 684.657778c24.462222-32.711111 86.755556-107.804444 142.222222-96.995556a217.315556 217.315556 0 0 1 90.453334 56.888889c47.217778 41.244444 85.333333 69.688889 116.622222 56.888889s196.266667-215.893333 203.946666-252.302222c1.706667-18.204444-50.062222-54.613333-81.351111-76.231111-40.391111-28.444444-78.222222-54.613333-93.013333-85.333334-18.204444-41.244444 10.24-98.133333 36.408889-138.524444 36.977778-56.888889 113.777778-142.222222 176.355555-142.222222 91.875556 0 199.111111 112.071111 227.555556 239.786666 12.8 56.888889 40.106667 252.586667-140.231111 489.528889-174.364444 227.555556-341.333333 280.462222-462.222222 280.462222z m-227.555556-162.133333c19.057778 35.555556 90.168889 95.857778 199.111111 104.96s270.222222-28.444444 444.871111-257.991112c166.115556-217.315556 142.222222-392.817778 130.844445-442.311111-25.6-110.364444-113.777778-196.551111-173.511111-196.551111-25.031111 0-85.333333 49.777778-128.568889 116.622222-30.151111 45.795556-35.271111 75.377778-31.288889 85.333334a271.075556 271.075556 0 0 0 73.955555 63.146666C682.666667 364.942222 739.555556 403.911111 732.728889 455.111111S540.444444 736.142222 494.648889 753.777778c-67.982222 28.444444-127.431111-24.177778-175.217778-65.991111A201.955556 201.955556 0 0 0 256 642.844444c-9.671111-2.275556-45.226667 18.204444-87.324444 75.377778-48.355556 65.137778-64.284444 122.311111-56.888889 136.533334z m0 0" fill="#ddd" p-id="4533"></path></svg>