<?xml version="1.0" standalone="no"?><!DOCTYPE svg PUBLIC "-//W3C//DTD SVG 1.1//EN" "http://www.w3.org/Graphics/SVG/1.1/DTD/svg11.dtd"><svg t="1587023825626" class="icon" viewBox="0 0 1000 1000" version="1.1" xmlns="http://www.w3.org/2000/svg" p-id="4633" xmlns:xlink="http://www.w3.org/1999/xlink" width="200" height="200"><defs><style type="text/css"></style></defs><path d="M904.1081 375.8782l-69.6416 69.8017c-54.6172 54.7329-297.6034 297.8191-328.5657 328.847-10.1595 10.1731-20.6468 34.0609-89.1112 49.1627-97.5708 21.5214-300.0609 66.1861-300.0609 66.1861s45.2282-202.025 67.0523-299.5139c15.3512-68.5535 41.1488-81.111 54.1465-94.1412 29.3023-29.3601 266.6132-266.7591 315.3851-315.634l77.9573-78.124c16.1487-16.174 42.327-16.174 58.4748 0l214.3635 214.8313C920.2558 333.4749 920.2558 359.7041 904.1081 375.8782zM457.3507 705.3588c4.76-4.1842 8.3687-7.7537 10.7871-10.1721 21.2485-21.2996 165.2907-165.3949 251.7466-251.9192l-43.3204-43.3176L414.2401 662.25 457.3507 705.3588zM624.1044 347.4854 361.7805 609.7926l34.9767 34.9763 262.3249-262.3072L624.1044 347.4854zM258.9401 630.5825c-18.4103 63.2831-44.1569 162.263-44.1569 162.263s97.309-26.4641 160.7786-43.9462c15.3112-4.2241 28.4269-9.6624 39.8946-15.4815L273.9905 591.9587C268.512 602.9942 263.2813 615.6506 258.9401 630.5825zM311.6215 539.5592c-2.5234 2.5233-5.9102 6.0089-9.7278 10.343l42.391 42.4092 262.3249-262.3142-42.7967-42.802C481.2275 369.8572 331.9286 519.202 311.6215 539.5592zM660.5073 190.3479l-38.9782 39.0615c-0.5496 0.5426-1.0593 1.0523-1.596 1.5949l-8.1458 8.1655c-3.2289 3.2298-7.819 7.8257-13.0227 13.0362L754.8492 408.2722c9.48-9.4856 17.3779-17.4032 22.5946-22.6267l38.9652-39.0555L660.5073 190.3479z" p-id="4634" fill="#856f6f"></path></svg>