<?xml version="1.0" standalone="no"?><!DOCTYPE svg PUBLIC "-//W3C//DTD SVG 1.1//EN" "http://www.w3.org/Graphics/SVG/1.1/DTD/svg11.dtd"><svg t="1586849038241" class="icon" viewBox="0 0 1024 1024" version="1.1" xmlns="http://www.w3.org/2000/svg" p-id="5110" xmlns:xlink="http://www.w3.org/1999/xlink" width="200" height="200"><defs><style type="text/css"></style></defs><path d="M812.577114 5.094527l76.417911 81.512438-229.253731 264.915423-254.726369-198.686567c-10.189055-15.283582-20.378109-15.283582-30.567164-15.283582-15.283582 0-25.472637 5.094527-35.661691 15.283582L22.925373 463.60199c-5.094527 5.094527-10.189055 15.283582-10.189055 20.37811 0 10.189055 0 15.283582 10.189055 25.472636 5.094527 5.094527 15.283582 10.189055 25.472637 10.189055s15.283582-5.094527 25.472637-10.189055l300.577114-305.671641 254.726368 208.875621c10.189055 5.094527 20.378109 10.189055 30.567165 10.189055 15.283582 0 25.472637-5.094527 35.661691-15.283582l249.631841-280.199005 71.323383 71.323383V0l-203.781095 5.094527zM33.114428 641.910448h91.701492V1024H33.114428zM624.079602 575.681592H715.781095V1024h-91.701493zM919.562189 361.711443h91.701493v662.288557H919.562189z" fill="#fff" p-id="5111"></path><path d="M328.597015 433.034826h91.701492V1024H328.597015z" fill="#fff" p-id="5112"></path></svg>