<?xml version="1.0" standalone="no"?><!DOCTYPE svg PUBLIC "-//W3C//DTD SVG 1.1//EN" "http://www.w3.org/Graphics/SVG/1.1/DTD/svg11.dtd"><svg t="1586840073109" class="icon" viewBox="0 0 1024 1024" version="1.1" xmlns="http://www.w3.org/2000/svg" p-id="2142" xmlns:xlink="http://www.w3.org/1999/xlink" width="200" height="200"><defs><style type="text/css"></style></defs><path d="M885.250787 1023.991H197.044212a36.815105 36.815105 0 0 1-36.815105-36.885101c0-20.292955 23.783776-31.393384 44.075731-31.393384h682.622863c23.736778 0 40.306925-22.177858 40.306925-41.329872 0-19.153014-16.569147-49.684443-40.306925-49.684443H137.073299c-63.13675 0-113.774144-34.558221-113.774143-95.78507 0-61.20485 52.337306-109.586359 115.449057-109.586359h85.4756c20.293955 0 36.816105 16.546148 36.816105 36.862103 0 20.315954-16.52215 36.862103-36.815105 36.862102h-85.4756c-23.714779 0-41.842846 16.70914-41.842846 35.861155s16.429154 27.507584 40.166932 27.507584h749.853402c63.13675 0 113.774144 56.759078 113.774143 117.962928s-52.337306 109.608358-115.449057 109.608357zM648.464976 628.352366a61.529833 61.529833 0 0 1-5.468719 6.772651c-45.286669 55.316153-90.875322 92.620232-92.900218 94.202151l-31.765365 25.761674-31.928356-25.621681c-1.861904-1.581919-47.59055-38.46802-93.015212-93.923165a46.263619 46.263619 0 0 1-5.469719-6.60966c-53.198262-69.698412-144.073584-179.027785-163.621578-293.3599a307.114191 307.114191 0 0 1-3.444822-39.189982c-0.58097-80.355864 31.044402-155.685986 89.432396-212.14308A297.386692 297.386692 0 0 1 518.329674-0.00129c78.49496 0 152.545148 29.950458 208.489268 84.242664 57.783026 56.038115 89.293404 131.065253 88.711434 210.863146 0 1.722911-0.139993 16.407155-3.607814 40.747902-18.244061 106.863499-98.763916 207.396324-163.458586 292.499944zM518.050689 83.101432c-122.523693 0-222.871528 99.648871-221.730587 222.358555 0 0 0 11.101429 2.745859 29.532479 14.661245 85.685589 83.823685 169.928253 139.325828 242.232532a8.679553 8.679553 0 0 0 1.722911 2.164888c38.538016 47.519554 78.075981 79.215922 78.075981 79.215923s39.397972-32.115347 78.075981-79.635901c0.417978-0.441977 1.279934-1.302933 1.721912-2.163889 55.502143-72.746255 124.664583-156.546942 139.325828-242.535515 2.72286-18.431051 2.72286-29.53148 2.72286-29.53148 0.860956-122.686685-99.484879-221.637591-221.986573-221.637592z m0 369.690971c-74.050188 0-134.43908-58.899968-134.43908-131.483232s60.388892-131.484232 134.43908-131.484232 134.43908 58.899968 134.439079 131.483232-60.388892 131.484232-134.439079 131.484232z m0-198.296793a67.486526 67.486526 0 0 0-67.440529 67.673516 67.626519 67.626519 0 0 0 67.440529 67.696516c37.234083 0 67.41653-30.391436 67.416529-67.696516a67.486526 67.486526 0 0 0-67.416529-67.673516z" fill="#7b7b7b" p-id="2143"></path></svg>