<?xml version="1.0" standalone="no"?><!DOCTYPE svg PUBLIC "-//W3C//DTD SVG 1.1//EN" "http://www.w3.org/Graphics/SVG/1.1/DTD/svg11.dtd"><svg t="1586828216656" class="icon" viewBox="0 0 1024 1024" version="1.1" xmlns="http://www.w3.org/2000/svg" p-id="2756" xmlns:xlink="http://www.w3.org/1999/xlink" width="200" height="200"><defs><style type="text/css"></style></defs><path d="M698.048 288.64a36.48 36.48 0 1 0 0 73.088 36.48 36.48 0 0 0 0-73.088z m0-73.088a109.632 109.632 0 1 1 0 219.2 109.632 109.632 0 0 1 0-219.2z m0-142.464a251.904 251.904 0 0 0-226.88 359.68l22.272 46.72-36.48 36.608-383.68 383.616 50.24 50.24 153.856-154.56 51.712-51.712 52.032 52.224 18.24 18.304 49.92-50.048-18.304-18.304-51.648-51.648 51.456-52.48L506.432 566.4l36.544-36.544 46.72 22.08c34.304 16.256 71.744 24.64 109.632 24.448a249.536 249.536 0 0 0 177.792-73.024 252.096 252.096 0 0 0-179.072-430.208z m0-73.088a325.12 325.12 0 1 1-139.904 618.752l-75.456 75.456 18.816 18.816a73.088 73.088 0 0 1 0 102.08l-51.2 51.2a72.128 72.128 0 0 1-102.08 0l-19.2-19.2-153.6 154.688a72.128 72.128 0 0 1-102.144 0l-52.032-50.944a72 72 0 0 1 0-102.144l383.616-383.616A324.992 324.992 0 0 1 698.048 0z" fill="#ddd" p-id="2757"></path></svg>