<?xml version="1.0" standalone="no"?><!DOCTYPE svg PUBLIC "-//W3C//DTD SVG 1.1//EN" "http://www.w3.org/Graphics/SVG/1.1/DTD/svg11.dtd"><svg t="1586849298519" class="icon" viewBox="0 0 1024 1024" version="1.1" xmlns="http://www.w3.org/2000/svg" p-id="6681" xmlns:xlink="http://www.w3.org/1999/xlink" width="200" height="200"><defs><style type="text/css"></style></defs><path d="M284.89728 241.51552c27.02848 0 48.91136-22.07232 48.91136-49.30048v-138.9568c0-27.24352-21.88288-49.31584-48.91136-49.31584-27.0336 0-48.93696 22.07232-48.93696 49.31584v138.9568c0 27.23328 21.90336 49.30048 48.93696 49.30048z m462.01344-0.128c25.84064-1.34656 46.38208-22.8096 46.38208-49.17248v-138.9568a49.15712 49.15712 0 0 0-30.83264-31.07328c-25.61536-8.65792-53.35552 5.24288-61.96224 31.07328v138.9568c-0.00512 26.36288 20.56704 47.82592 46.4128 49.17248z m2.54976 0.128c-0.86016 0-1.69984-0.08704-2.54976-0.128-0.85504 0.04608-1.69472 0.128-2.55488 0.128h5.10464z m193.80736-118.46656H839.68V183.2448c-4.25472 51.82464-49.38752 90.3424-100.80256 86.06208-45.51168-3.79392-81.61792-40.19712-85.40672-86.06208V123.04896H375.13728V183.2448c-4.2752 51.82464-49.38752 90.3424-100.80256 86.06208-45.53216-3.79392-81.6384-40.19712-85.42208-86.06208V123.04896H85.98016c-30.53056 0-55.296 24.93952-55.296 55.72096v785.72544c0 30.76608 24.76544 55.72096 55.296 55.72096h857.28768c30.53056 0 55.296-24.95488 55.296-55.72096V178.76992c0-30.78144-24.76544-55.72096-55.296-55.72096z m-30.50496 810.73152c0 16.96256-13.66016 30.71488-30.50496 30.71488H146.99008c-16.8704 0-30.53056-13.75744-30.53056-30.71488V368.95744c0-16.98816 13.66016-30.74048 30.53056-30.74048h735.26784c16.8448 0 30.50496 13.75232 30.50496 30.74048v564.82304z m-461.08672-155.20768l-0.11776-0.73728-90.2656-252.86144-0.21504-0.52224c-11.93472-26.74688-30.95552-40.97024-56.54528-42.3424l-0.35328-0.01024-0.37888 0.02048c-27.10016 1.37216-45.60384 15.80544-54.9632 42.77248l-94.06976 253.40416-1.79712 1.94048 0.02048 16.10752c1.39264 23.0912 15.45216 35.80416 39.53664 35.80416 19.58912 0 33.69472-9.05728 40.8064-26.20928l12.94848-39.11168h117.3248l11.17696 38.60992c4.0192 12.17536 14.39232 26.71104 40.99584 26.71104 24.02816 0 38.0672-12.05248 39.53152-33.93024l0.09728-1.44384-0.44544-1.32096c-0.73728-2.24256-1.91488-6.97344-3.28704-16.88064z m-180.91008-89.64608l33.38752-103.68512 33.38752 103.68512H270.76608z m359.97184 65.31584h-73.86624v-227.2256c-1.41824-26.752-15.57504-41.63584-40.94976-43.07456l-0.39936-0.03072h-0.37888c-26.4192 1.42336-40.97024 16.87552-40.97024 43.48416v259.456c0 29.19936 14.6944 45.30176 41.35424 45.30176h115.21536c22.77888 0 37.05344-12.74368 41.26208-36.79744l0.13824-0.85504-0.04608-0.8192c-1.44384-24.36608-15.59552-37.97504-41.35936-39.43936z m207.78496 0h-73.89696v-227.2256c-1.39264-26.752-15.54432-41.63584-40.92416-43.07456l-0.40448-0.03072h-0.39936c-26.4192 1.42336-40.97536 16.87552-40.97536 43.48416v259.456c0 29.19936 14.69952 45.30176 41.34912 45.30176h115.2512c22.77376 0 37.02272-12.74368 41.23136-36.79744l0.16384-0.85504-0.07168-0.8192c-1.41824-24.36608-15.5904-37.97504-41.32352-39.43936z" fill="#fff" p-id="6682"></path></svg>