<?xml version="1.0" standalone="no"?><!DOCTYPE svg PUBLIC "-//W3C//DTD SVG 1.1//EN" "http://www.w3.org/Graphics/SVG/1.1/DTD/svg11.dtd"><svg t="1587023865078" class="icon" viewBox="0 0 1024 1024" version="1.1" xmlns="http://www.w3.org/2000/svg" p-id="6028" xmlns:xlink="http://www.w3.org/1999/xlink" width="200" height="200"><defs><style type="text/css"></style></defs><path d="M768 332.8c-17.92 0-32 14.08-32 32v430.08c0 20.48-16.64 37.12-37.12 37.12H325.12c-20.48 0-37.12-16.64-37.12-37.12V364.8c0-17.92-14.08-32-32-32s-32 14.08-32 32v430.08C224 850.56 269.44 896 325.12 896h374.4c55.68 0 101.12-45.44 101.12-101.12V364.8c-0.64-17.28-14.72-32-32.64-32zM832 256H640v-70.4c0-32-26.24-57.6-57.6-57.6H441.6c-32 0-57.6 26.24-57.6 57.6V256H192c-17.92 0-32 14.08-32 32s14.08 32 32 32h640c17.92 0 32-14.08 32-32s-14.08-32-32-32z m-384-64h128v64H448v-64z" p-id="6029"></path><path d="M448 704V467.2c0-17.92-14.08-32-32-32s-32 14.08-32 32V704c0 17.92 14.08 32 32 32s32-14.08 32-32zM640 704V467.2c0-17.92-14.08-32-32-32s-32 14.08-32 32V704c0 17.92 14.08 32 32 32s32-14.08 32-32z" p-id="6030"></path></svg>