<?xml version="1.0" standalone="no"?><!DOCTYPE svg PUBLIC "-//W3C//DTD SVG 1.1//EN" "http://www.w3.org/Graphics/SVG/1.1/DTD/svg11.dtd"><svg t="1586851014787" class="icon" viewBox="0 0 1228 1024" version="1.1" xmlns="http://www.w3.org/2000/svg" p-id="7455" xmlns:xlink="http://www.w3.org/1999/xlink" width="239.84375" height="200"><defs><style type="text/css"></style></defs><path d="M1197.044464 931.368309a31.673622 31.673622 0 0 1 0 63.483768H31.673622A31.673622 31.673622 0 0 1 0 963.041931V31.741884a31.673622 31.673622 0 1 1 63.415506 0v899.694687h224.445837V680.436771a31.673622 31.673622 0 0 1 63.483767 0v250.863276h151.678422V531.557096a31.673622 31.673622 0 1 1 63.415505 0v399.811213h151.678422V680.505033a31.673622 31.673622 0 0 1 63.483768 0v250.863276h151.678421V430.187854a31.673622 31.673622 0 1 1 63.415506 0v501.180455h200.34931zM261.64869 499.132591a31.673622 31.673622 0 0 1-22.389974-54.131858l273.048464-273.048463a31.673622 31.673622 0 0 1 44.165588-0.682621l192.635691 181.577228L1017.105526 83.348043h-68.603426a31.673622 31.673622 0 0 1 0-63.415505h144.783948l1.160456 0.136524c1.706553 0 3.413106 0.204786 5.051396 0.477835l2.662223 0.819145c1.092194 0.273048 2.184388 0.546097 3.208319 1.023932 1.023932 0.409573 1.911339 0.95567 2.867009 1.433504 0.887408 0.477835 1.774815 0.887408 2.59396 1.433505a31.400573 31.400573 0 0 1 3.686155 3.003533l1.160456 0.887407c1.501767 1.501767 2.798747 3.140057 3.959202 4.846611 0.546097 0.819145 0.95567 1.706553 1.365243 2.59396 0.546097 0.95567 1.160456 1.843077 1.570028 2.867009 0.477835 1.160456 0.682621 2.320912 1.092194 3.413106 0.204786 0.887408 0.546097 1.706553 0.682621 2.525698 0.477835 2.047863 0.682621 4.095727 0.682621 6.211853v146.900073a31.673622 31.673622 0 0 1-63.415505 0V128.537564l-289.226585 290.933138a31.673622 31.673622 0 0 1-44.233851 0.682621l-192.703953-181.577228-251.272849 251.272848a31.673622 31.673622 0 0 1-22.458236 9.283648z" fill="#7b7b7b" p-id="7456"></path></svg>