<?xml version="1.0" standalone="no"?><!DOCTYPE svg PUBLIC "-//W3C//DTD SVG 1.1//EN" "http://www.w3.org/Graphics/SVG/1.1/DTD/svg11.dtd"><svg t="1586781502132" class="icon" viewBox="0 0 1024 1024" version="1.1" xmlns="http://www.w3.org/2000/svg" p-id="5275" xmlns:xlink="http://www.w3.org/1999/xlink" width="200" height="200"><defs><style type="text/css"></style></defs><path d="M829.954048 537.933824 509.952 537.933824l0-287.68256c0-17.65888-14.337024-31.934464-31.995904-31.934464-17.66912 0-32.007168 14.338048-32.007168 31.934464L445.948928 569.62048l0 0.249856c0 17.09568 13.438976 31.038464 30.34112 31.936512 0.515072 0 1.089536 0.060416 1.666048 0.060416l351.997952 0c17.659904 0 31.996928-14.32576 31.996928-31.936512C861.950976 552.27392 847.613952 537.933824 829.954048 537.933824M511.972352 0C229.226496 0 0 229.23264 0 512.017408 0 794.768384 229.226496 1024 511.972352 1024 794.706944 1024 1024 794.768384 1024 512.017408 1024 229.23264 794.706944 0 511.972352 0M512.106496 976.431104c-256.411648 0-464.275456-207.863808-464.275456-464.280576S255.693824 47.863808 512.106496 47.863808c256.416768 0 464.279552 207.868928 464.279552 464.285696C976.386048 768.562176 768.523264 976.431104 512.106496 976.431104" fill="#ddd" p-id="5276"></path></svg>