<?xml version="1.0" standalone="no"?><!DOCTYPE svg PUBLIC "-//W3C//DTD SVG 1.1//EN" "http://www.w3.org/Graphics/SVG/1.1/DTD/svg11.dtd"><svg t="1586764973798" class="icon" viewBox="0 0 1024 1024" version="1.1" xmlns="http://www.w3.org/2000/svg" p-id="4901" xmlns:xlink="http://www.w3.org/1999/xlink" width="200" height="200"><defs><style type="text/css"></style></defs><path d="M954.071984 780.273099l-84.967607-144.929732V434.483006a319.712947 319.712947 0 0 0-66.647264-187.490083 381.052925 381.052925 0 0 0-172.792983-129.416126l-1.224759-0.408253a405.49706 405.49706 0 0 0-15.768763-4.643875v-10.20632a102.216286 102.216286 0 0 0-204.483604 0v9.389814a372.785807 372.785807 0 0 0-13.472341 3.929433l-0.867537 0.255158A380.542609 380.542609 0 0 0 218.043278 245.206818a320.376358 320.376358 0 0 0-67.872022 189.174125v200.860361l-90.938303 155.136051a58.890461 58.890461 0 0 0 0 60.11522 38.835044 38.835044 0 0 0 42.815508 20.412638h255.157979a153.094787 153.094787 0 1 0 306.189574 0h255.157979a44.958836 44.958836 0 0 0 51.031596-50.470248 58.584272 58.584272 0 0 0-15.513605-40.161866zM510.505354 55.063092a48.326921 48.326921 0 0 1 48.837237 44.958836 371.61208 371.61208 0 0 0-16.534237-2.704675 27.199841 27.199841 0 0 0-7.042361 0l-2.9088-0.408253a125.99701 125.99701 0 0 0-46.285658 0l-2.500548 0.357221a29.08801 29.08801 0 0 0-7.297518 0c-5.10316 0.714442-10.206319 1.479916-15.003289 2.398485A48.27589 48.27589 0 0 1 510.505354 55.063092z m0 917.139838A112.269511 112.269511 0 0 1 408.442162 870.854181h204.126383a112.626732 112.626732 0 0 1-102.063191 101.348749zM918.758119 819.822585H102.252588c-3.112927 0 5.10316 7.399581 3.419117 5.10316a8.471245 8.471245 0 0 1 0-8.573308l94.510515-161.157779a25.821987 25.821987 0 0 0 3.470148-12.808931v-207.698595a307.97568 307.97568 0 0 1 207.953753-269.650951 552.570119 552.570119 0 0 1 65.524569-15.309479 25.821987 25.821987 0 0 0 5.613476 0c4.133559-0.408253 8.011961-0.9696 11.737267-1.479916a104.104455 104.104455 0 0 1 15.309478-1.58198 102.726602 102.726602 0 0 1 15.309479 1.58198c3.725306 0.510316 7.603708 1.071664 11.788299 1.479916a23.882787 23.882787 0 0 0 5.103159 0 576.91219 576.91219 0 0 1 69.811223 16.687332 308.537028 308.537028 0 0 1 204.126383 268.273098v207.698595a25.821987 25.821987 0 0 0 3.470149 12.808931l90.121798 153.656134a25.515798 25.515798 0 0 0 4.643875 5.817602 7.960929 7.960929 0 0 1 2.449516 5.919665C916.410666 824.925745 923.861279 819.822585 918.758119 819.822585z" fill="#fff" p-id="4902"></path></svg>