<?xml version="1.0" standalone="no"?><!DOCTYPE svg PUBLIC "-//W3C//DTD SVG 1.1//EN" "http://www.w3.org/Graphics/SVG/1.1/DTD/svg11.dtd"><svg t="1586848702801" class="icon" viewBox="0 0 1024 1024" version="1.1" xmlns="http://www.w3.org/2000/svg" p-id="4294" xmlns:xlink="http://www.w3.org/1999/xlink" width="200" height="200"><defs><style type="text/css"></style></defs><path d="M338.0736 670.0544a154.2144 154.2144 0 0 1-46.7456-110.4384V394.6496c0-31.0272 9.216-59.904 25.1904-84.2752a95.3344 95.3344 0 0 0-22.272-2.6624H175.104c-53.248 0-96.768 43.4176-96.768 96.3072v151.552a96.256 96.256 0 0 0 52.3776 85.504v296.2432h78.08l28.7744-187.4944 28.7744 187.4944h71.8848v-267.264h-0.1024z m286.0544-17.1008a105.1136 105.1136 0 0 0 57.5488-93.3376V394.6496a105.472 105.472 0 0 0-105.3184-104.8064H446.464c-57.9072 0-105.3184 47.104-105.3184 104.8064v164.9664c0 40.3456 23.2448 75.5712 56.9856 93.0304v322.3552H483.328l31.2832-203.9808 31.3344 203.9808h78.1824v-322.048zM514.4576 48.9984c61.3376 0 111.0016 49.408 111.0016 110.4384 0 60.928-49.664 110.4896-111.0016 110.4896A110.6944 110.6944 0 0 1 403.456 159.4368 110.592 110.592 0 0 1 514.4576 48.9984z m171.3664 621.056v267.4688h71.8848l28.7744-187.5456 28.7744 187.5456h78.1312v-296.1408a96.512 96.512 0 0 0 52.3264-85.504V404.224a96.9216 96.9216 0 0 0-96.8704-96.3072h-118.9888c-7.68 0-15.2576 0.9216-22.3232 2.6624a152.064 152.064 0 0 1 25.2416 84.2752v164.9152c0 42.0352-17.408 81.7152-46.9504 110.2848z m100.9152-583.68a101.6832 101.6832 0 0 0-102.0416 101.376c0 56.064 45.568 101.5296 102.0416 101.5296 56.2688 0 101.888-45.3632 101.888-101.4784s-45.6192-101.376-101.888-101.376z m-549.376 0c56.2176 0 102.0416 45.3632 102.0416 101.376A101.7344 101.7344 0 0 1 237.3632 289.28a101.4272 101.4272 0 0 1 0-202.9056z" fill="#fff" p-id="4295"></path></svg>