<?xml version="1.0" standalone="no"?><!DOCTYPE svg PUBLIC "-//W3C//DTD SVG 1.1//EN" "http://www.w3.org/Graphics/SVG/1.1/DTD/svg11.dtd"><svg t="1586775290792" class="icon" viewBox="0 0 1024 1024" version="1.1" xmlns="http://www.w3.org/2000/svg" p-id="2258" xmlns:xlink="http://www.w3.org/1999/xlink" width="200" height="200" fill="#ddd"><defs><style type="text/css"></style></defs><path d="M807.131429 146.285714H950.857143v804.571429H73.142857V146.285714h146.285714a36.571429 36.571429 0 1 0 0-73.142857H73.142857a73.142857 73.142857 0 0 0-73.142857 73.142857v804.571429a73.142857 73.142857 0 0 0 73.142857 73.142857h877.714286a73.142857 73.142857 0 0 0 73.142857-73.142857V146.285714a73.142857 73.142857 0 0 0-73.142857-73.142857h-143.725714a36.571429 36.571429 0 1 0 0 73.142857z" fill="#ddd" p-id="2259"></path><path d="M292.571429 329.142857m36.571428 0l475.428572 0q36.571429 0 36.571428 36.571429l0 0q0 36.571429-36.571428 36.571428l-475.428572 0q-36.571429 0-36.571428-36.571428l0 0q0-36.571429 36.571428-36.571429Z" fill="#ddd" p-id="2260"></path><path d="M219.428571 365.714286m-36.571428 0a36.571429 36.571429 0 1 0 73.142857 0 36.571429 36.571429 0 1 0-73.142857 0Z" fill="#ddd" p-id="2261"></path><path d="M219.428571 585.142857m-36.571428 0a36.571429 36.571429 0 1 0 73.142857 0 36.571429 36.571429 0 1 0-73.142857 0Z" fill="#ddd" p-id="2262"></path><path d="M219.428571 804.571429m-36.571428 0a36.571429 36.571429 0 1 0 73.142857 0 36.571429 36.571429 0 1 0-73.142857 0Z" fill="#ddd" p-id="2263"></path><path d="M292.571429 548.571429m36.571428 0l292.571429 0q36.571429 0 36.571428 36.571428l0 0q0 36.571429-36.571428 36.571429l-292.571429 0q-36.571429 0-36.571428-36.571429l0 0q0-36.571429 36.571428-36.571428Z" fill="#ddd" p-id="2264"></path><path d="M292.571429 768m36.571428 0l182.857143 0q36.571429 0 36.571429 36.571429l0 0q0 36.571429-36.571429 36.571428l-182.857143 0q-36.571429 0-36.571428-36.571428l0 0q0-36.571429 36.571428-36.571429Z" fill="#ddd" p-id="2265"></path><path d="M365.714286 0h292.571428a73.142857 73.142857 0 0 1 73.142857 73.142857v73.142857a73.142857 73.142857 0 0 1-73.142857 73.142857h-292.571428a73.142857 73.142857 0 0 1-73.142857-73.142857V73.142857a73.142857 73.142857 0 0 1 73.142857-73.142857z m0 73.142857v73.142857h292.571428V73.142857h-292.571428zM763.245714 789.906286a91.428571 91.428571 0 1 0 9.508572-182.637715 91.428571 91.428571 0 0 0-9.508572 182.637715z m1.865143-36.571429a54.857143 54.857143 0 1 1 5.778286-109.531428 54.857143 54.857143 0 0 1-5.778286 109.568z" p-id="2266"></path><path d="M896 881.444571a128 128 0 0 0-256 0 18.285714 18.285714 0 1 0 36.571429 0 91.428571 91.428571 0 1 1 182.857142 0 18.285714 18.285714 0 1 0 36.571429 0z" fill="#ddd" p-id="2267"></path></svg>