<?xml version="1.0" standalone="no"?><!DOCTYPE svg PUBLIC "-//W3C//DTD SVG 1.1//EN" "http://www.w3.org/Graphics/SVG/1.1/DTD/svg11.dtd"><svg t="1587017121416" class="icon" viewBox="0 0 1303 1024" version="1.1" xmlns="http://www.w3.org/2000/svg" p-id="2136" xmlns:xlink="http://www.w3.org/1999/xlink" width="254.4921875" height="200"><defs><style type="text/css"></style></defs><path d="M1219.025455 0.651636H83.781818a83.688727 83.688727 0 0 0-83.595636 83.502546v815.476363c0 46.08 37.515636 83.595636 83.595636 83.595637h1135.336727a83.595636 83.595636 0 0 0 83.688728-83.502546V84.247273a83.595636 83.595636 0 0 0-83.688728-83.595637z m21.783272 899.072a21.783273 21.783273 0 0 1-21.783272 21.597091H83.781818a21.783273 21.783273 0 0 1-21.690182-21.597091V84.247273C61.998545 72.238545 71.68 62.464 83.688727 62.464h1135.336728c12.008727 0 21.783273 9.774545 21.783272 21.597091v815.476364zM521.681455 523.450182a188.974545 188.974545 0 0 0 75.310545-150.062546 189.626182 189.626182 0 0 0-189.346909-189.44A189.626182 189.626182 0 0 0 218.298182 373.294545c0 61.253818 29.882182 115.432727 75.403636 150.062546a286.440727 286.440727 0 0 0-172.311273 262.330182 30.999273 30.999273 0 0 0 61.905455 0 224.162909 224.162909 0 0 1 218.391273-223.697455c2.048 0 3.909818 0.558545 5.957818 0.558546s3.909818-0.558545 5.957818-0.558546A224.162909 224.162909 0 0 1 632.087273 785.687273a30.999273 30.999273 0 0 0 61.905454 0c0-117.294545-71.121455-218.205091-172.311272-262.330182z m-108.078546-23.272727c-2.048-0.093091-3.909818-0.651636-5.957818-0.651637s-3.909818 0.558545-5.957818 0.651637a127.348364 127.348364 0 0 1 5.957818-254.417455c70.283636 0 127.534545 57.250909 127.534545 127.534545 0 68.235636-54.178909 123.624727-121.576727 126.88291z m703.394909-259.723637H703.022545a30.906182 30.906182 0 1 0 0 61.905455H1117.090909a30.999273 30.999273 0 0 0 0-61.905455z m0 190.836364H703.022545a30.813091 30.813091 0 0 0-30.906181 30.906182v0.093091c0 17.035636 13.777455 30.999273 30.906181 30.999272H1117.090909a30.999273 30.999273 0 0 0 0-61.905454z m0 190.929454H764.928a30.906182 30.906182 0 0 0 0.093091 61.905455h351.883636a30.999273 30.999273 0 0 0 0-61.905455z" fill="#4ba7c6" p-id="2137"></path></svg>