<?xml version="1.0" standalone="no"?><!DOCTYPE svg PUBLIC "-//W3C//DTD SVG 1.1//EN" "http://www.w3.org/Graphics/SVG/1.1/DTD/svg11.dtd"><svg t="1586764631534" class="icon" viewBox="0 0 1024 1024" version="1.1" xmlns="http://www.w3.org/2000/svg" p-id="2136" xmlns:xlink="http://www.w3.org/1999/xlink" width="200" height="200"><defs><style type="text/css"></style></defs><path d="M527.488 1024C229.248 1024 0 794.752 0 527.488 0 229.248 229.248 0 527.488 0 794.752 0 1024 229.248 1024 527.488 1024 794.752 794.752 1024 527.488 1024zM512 960A448 448 0 1 0 512 64a448 448 0 0 0 0 896z m-5.76-232.64c14.976 0 28.16 4.48 38.72 14.976a50.368 50.368 0 0 1 14.912 36.928c0 15.808-5.248 28.16-15.808 37.76a53.888 53.888 0 0 1-37.76 14.976 53.888 53.888 0 0 1-37.76-14.976 50.368 50.368 0 0 1-14.976-37.76c0-14.976 4.416-27.264 14.912-36.928a50.304 50.304 0 0 1 37.76-14.976zM519.552 192c56.192 0 101.056 14.976 135.296 46.592 32.512 29.888 49.216 71.232 49.216 123.968 0 39.552-11.392 73.856-33.408 102.848-8.768 10.56-32.512 33.408-71.168 67.712-19.328 16.64-32.512 32.512-41.28 48.32-11.456 19.328-16.704 40.448-16.704 64.192v20.224H471.168v-20.224c0-28.992 5.248-54.528 15.808-76.48 12.288-26.368 41.28-59.776 88.704-102.016 14.08-14.08 24.64-24.576 29.888-31.616 17.6-21.952 26.368-44.8 26.368-69.44 0-35.2-10.56-62.4-29.888-81.792-20.16-21.12-49.216-30.72-86.08-30.72-43.968 0-76.48 14.08-97.536 43.072-19.328 24.576-28.992 57.984-28.992 101.12H320c0-61.568 16.64-110.784 51.84-147.712C407.04 211.328 456.192 192 519.488 192z" fill="#fff" p-id="2137"></path></svg>