<?xml version="1.0" standalone="no"?><!DOCTYPE svg PUBLIC "-//W3C//DTD SVG 1.1//EN" "http://www.w3.org/Graphics/SVG/1.1/DTD/svg11.dtd"><svg t="1586849157332" class="icon" viewBox="0 0 1024 1024" version="1.1" xmlns="http://www.w3.org/2000/svg" p-id="5930" xmlns:xlink="http://www.w3.org/1999/xlink" width="200" height="200"><defs><style type="text/css"></style></defs><path d="M960 816h-64V480a32 32 0 0 0-32-32h-128a32 32 0 0 0-32 32v336h-96V224a32 32 0 0 0-32-32h-128a32 32 0 0 0-32 32v592h-96V352a32 32 0 0 0-32-32H160a32 32 0 0 0-32 32v464H64a32 32 0 0 0-32 32v32a32 32 0 0 0 32 32h896a32 32 0 0 0 32-32v-32a32 32 0 0 0-32-32z" fill="#fff" p-id="5931"></path></svg>