<?xml version="1.0" standalone="no"?><!DOCTYPE svg PUBLIC "-//W3C//DTD SVG 1.1//EN" "http://www.w3.org/Graphics/SVG/1.1/DTD/svg11.dtd"><svg t="1587876814524" class="icon" viewBox="0 0 1024 1024" version="1.1" xmlns="http://www.w3.org/2000/svg" p-id="1927" xmlns:xlink="http://www.w3.org/1999/xlink" width="200" height="200"><defs><style type="text/css"></style></defs><path d="M958.09901 882.059406h-91.247525v91.247525a30.415842 30.415842 0 1 1-60.831683 0v-91.247525h-91.247525a30.415842 30.415842 0 1 1 0-60.831683h91.247525v-91.247525a30.415842 30.415842 0 1 1 60.831683 0v91.247525h91.247525a30.415842 30.415842 0 1 1 0 60.831683zM627.914772 592.439762a445.825267 445.825267 0 0 1 145.468832 84.069387l-4.369743 4.359603c4.065584 5.170693 6.590099 11.608713 6.590099 18.695604a30.415842 30.415842 0 0 1-30.415841 30.415842 30.304317 30.304317 0 0 1-28.783525-21.037624C651.355248 658.766574 570.094257 628.594059 481.584158 628.594059 275.608079 628.594059 107.398337 790.23398 96.854178 993.584158H96.316832a30.415842 30.415842 0 1 1-60.831683 0c0-2.757703 0.486653-5.383604 1.176079-7.918257 11.426218-182.70796 132.592792-335.608396 298.531485-393.256554C235.367921 539.759525 167.287129 435.007366 167.287129 314.29703 167.287129 140.713822 308.00095 0 481.584158 0c173.583208 0 314.29703 140.713822 314.29703 314.29703 0 120.730614-68.111208 225.50305-167.966416 278.142732zM481.584158 60.831683C341.600317 60.831683 228.118812 174.313188 228.118812 314.29703s113.481505 253.465347 253.465346 253.465346 253.465347-113.481505 253.465347-253.465346S621.568 60.831683 481.584158 60.831683z" fill="#fff" p-id="1928"></path></svg>