<?xml version="1.0" standalone="no"?><!DOCTYPE svg PUBLIC "-//W3C//DTD SVG 1.1//EN" "http://www.w3.org/Graphics/SVG/1.1/DTD/svg11.dtd"><svg t="1587876829297" class="icon" viewBox="0 0 1024 1024" version="1.1" xmlns="http://www.w3.org/2000/svg" p-id="2073" xmlns:xlink="http://www.w3.org/1999/xlink" width="200" height="200"><defs><style type="text/css"></style></defs><path d="M327.68 252.608C327.68 154.752 410.368 89.6 512 89.6s184.32 65.152 184.32 163.008l0.256 121.152 46.08 0-9.088-115.008C733.568 123.136 647.488 51.2 512 51.2S291.584 123.136 291.584 258.752L281.856 373.76l46.08 0L327.68 252.608z" fill="#fff" p-id="2074"></path><path d="M143.36 419.264 143.36 598.4c0 206.464 165.376 374.4 368.64 374.4s368.64-167.936 368.64-374.4L880.64 419.264 143.36 419.264zM512 934.4c-169.408 0-331.392-173.76-331.392-340.096l8.64-127.808 645.248 0 10.048 127.808C844.544 760.64 681.408 934.4 512 934.4z" fill="#fff" p-id="2075"></path><path d="M512 589.312c-41.984 0-76.032 34.048-76.032 76.032l0 74.688c0 41.984 34.048 76.032 76.032 76.032s76.032-34.048 76.032-76.032l0-74.688C588.032 623.36 553.984 589.312 512 589.312zM549.632 739.968c0 20.736-16.896 37.632-37.632 37.632s-37.632-16.896-37.632-37.632l0-74.688c0-20.736 16.896-37.568 37.632-37.568s37.632 16.896 37.632 37.568L549.632 739.968z" fill="#fff" p-id="2076"></path></svg>