<?xml version="1.0" standalone="no"?><!DOCTYPE svg PUBLIC "-//W3C//DTD SVG 1.1//EN" "http://www.w3.org/Graphics/SVG/1.1/DTD/svg11.dtd"><svg t="1587876850025" class="icon" viewBox="0 0 1601 1024" version="1.1" xmlns="http://www.w3.org/2000/svg" p-id="2816" xmlns:xlink="http://www.w3.org/1999/xlink" width="312.6953125" height="200"><defs><style type="text/css"></style></defs><path d="M664.049376 1024c-66.875269-10.288503-176.521315-69.226927-272.939286-146.684656-48.649921-39.096311-89.803933-79.368451-118.905698-116.701019-31.012487-39.684226-47.474092-74.518157-47.474092-100.974308 0-328.203244 0-540.440362 0.146979-587.326539 21.16492 1.616765 60.996125 3.968423 109.205109 3.968422 114.49634 0 264.267547-13.375054 330.554902-76.2819 66.287355 63.053825 215.470647 76.2819 329.67303 76.2819 48.062007 0 87.746232-2.351658 108.764174-3.968422v587.473518c0 26.750108-16.314626 61.877996-47.180135 101.562222-28.954787 37.332568-69.96182 77.604708-118.464762 116.55404-46.886178 37.773504-97.593799 71.431606-146.243721 97.5938-49.384814 26.603129-93.33142 43.358691-127.1365 48.502942zM276.613751 139.041768v520.598249c0 10.435482 9.55361 34.686953 36.450696 69.079949 26.750108 34.099038 64.964547 71.578585 110.527917 108.176259 44.093584 35.421846 93.33142 68.345055 138.600832 92.890484 37.773504 20.430027 73.048371 34.98091 99.357543 41.007033l2.645615 0.587914 2.645615-0.587914c18.813263-4.26238 51.442515-14.697861 99.945457-40.860055 45.269413-24.39845 94.507248-57.174681 138.306876-92.449547 45.416392-36.450696 83.483852-73.783264 110.086981-108.029281 34.539974-44.387541 36.303718-65.993397 36.303718-69.814842V126.989522l-12.052247 0.293957c-14.991819 0.440936-30.130616 0.587914-44.975455 0.587915-75.106071 0-141.393426-5.438209-196.951342-16.314626-52.030429-10.141524-93.478398-24.39845-126.842544-43.652649l-5.879144-3.380508-5.879145 3.380508c-33.364145 19.254198-74.959093 33.511124-127.1365 43.652649-55.704895 10.729439-122.139228 16.314626-197.539257 16.314626-14.84484 0-30.130616-0.146979-45.416392-0.587915l-12.052246-0.293957-0.146978 12.052246z" fill="#fff" p-id="2817"></path><path d="M622.307449 659.786996c-7.642888 0-14.991819-2.939572-20.430027-8.377781l-154.327544-154.474523c-5.438209-5.438209-8.377781-12.640161-8.377781-20.283049 0-7.642888 2.939572-14.84484 8.377781-20.283048 5.438209-5.438209 12.640161-8.377781 20.430027-8.377781s14.84484 2.939572 20.283049 8.377781l134.044495 134.044495L899.068179 313.505383c5.438209-5.438209 12.640161-8.377781 20.283048-8.377781 7.642888 0 14.991819 2.939572 20.283049 8.377781 11.170375 11.170375 11.170375 29.542701 0 40.713075L642.590498 651.262236c-5.438209 5.438209-12.640161 8.52476-20.283049 8.52476z" fill="#fff" p-id="2818"></path></svg>