<?xml version="1.0" standalone="no"?><!DOCTYPE svg PUBLIC "-//W3C//DTD SVG 1.1//EN" "http://www.w3.org/Graphics/SVG/1.1/DTD/svg11.dtd"><svg t="1586324566077" class="icon" viewBox="0 0 1024 1024" version="1.1" xmlns="http://www.w3.org/2000/svg" p-id="2133" xmlns:xlink="http://www.w3.org/1999/xlink" width="200" height="200" fill="#fff"><defs><style type="text/css"></style></defs><path d="M512 53.077118c168.940582 0 306.43405 135.605563 306.43405 302.280657v64.13485h34.359882c32.040455 0 58.201433 25.945217 58.471133 57.985673v488.48209a58.579014 58.579014 0 0 1-58.525073 58.039612H171.206068a58.525074 58.525074 0 0 1-58.471133-57.931732V477.532238c0.10788-15.642646 6.257059-30.20649 17.368731-41.210283 11.057733-10.895912 25.621576-16.82933 41.048462-16.82933h34.413822V355.411715c0-166.675095 137.439528-302.334598 306.38011-302.334597z m343.437 421.32659H168.50906v494.631269h686.92794v-494.631269zM512 598.466077c17.260851 0 31.393173 12.621997 31.393173 28.210703v187.442057c0 15.534766-14.078382 28.156764-31.393173 28.156764-17.314791 0-31.447113-12.621997-31.447113-28.156764v-187.442057c0-15.588706 14.132322-28.264644 31.447113-28.264643z m0-490.423936c-137.169827 0-248.933839 109.282764-250.605984 244.241045v67.209439h501.211968v-64.18879c0-136.306785-112.411294-247.261694-250.605984-247.261694z" fill="#fff" p-id="2134"></path></svg>