<?xml version="1.0" standalone="no"?><!DOCTYPE svg PUBLIC "-//W3C//DTD SVG 1.1//EN" "http://www.w3.org/Graphics/SVG/1.1/DTD/svg11.dtd"><svg t="1586255377072" class="icon" viewBox="0 0 1638 1024" version="1.1" xmlns="http://www.w3.org/2000/svg" p-id="2293" xmlns:xlink="http://www.w3.org/1999/xlink" width="319.921875" height="200"><defs><style type="text/css"></style></defs><path d="M819.134471 150.866948A776.63022 776.63022 0 0 0 154.51921 511.99744a792.091151 792.091151 0 0 0 1329.230523 0A776.63022 776.63022 0 0 0 819.134471 150.866948zM819.134471 0.046076a931.751484 931.751484 0 0 1 797.108275 434.339537 147.749164 147.749164 0 0 1 0 155.223654 948.543488 948.543488 0 0 1-1594.216549 0 147.749164 147.749164 0 0 1 0-155.223654A931.751484 931.751484 0 0 1 819.134471 0.046076z m0.921513 731.68089A219.729526 219.729526 0 1 1 1045.314584 511.99744a222.391673 222.391673 0 0 1-225.2586 220.139087z m0-150.820872a68.908654 68.908654 0 1 0-70.546898-68.806263 69.727776 69.727776 0 0 0 70.546898 68.703873z" fill="#fff" p-id="2294"></path></svg>