<?xml version="1.0" standalone="no"?><!DOCTYPE svg PUBLIC "-//W3C//DTD SVG 1.1//EN" "http://www.w3.org/Graphics/SVG/1.1/DTD/svg11.dtd"><svg t="1586255369735" class="icon" viewBox="0 0 1908 1024" version="1.1" xmlns="http://www.w3.org/2000/svg" p-id="2162" xmlns:xlink="http://www.w3.org/1999/xlink" width="372.65625" height="200"><defs><style type="text/css"></style></defs><path d="M1193.05166 530.731043l-354.92653 190.586869c34.389199 18.855137 73.777866 29.639704 115.737688 29.639704 126.272282-0.214263 229.54701-97.168235 239.188842-220.226573z m-478.163421-37.460301l354.92653-190.515448a239.403105 239.403105 0 0 0-115.701978-29.782546c-126.522255 0-229.832694 97.061104-239.224552 220.297994z m-124.379626 66.778611a361.175865 361.175865 0 0 1-3.428207-48.030605c0-201.62141 164.339661-365.032598 366.996675-365.032598 91.775952 0 175.517044 33.74641 239.79592 89.240507l225.261752-120.915709C1280.399511 48.389495 1122.059212 0.037496 954.112791 0.037496 532.443361 0.037496 172.33881 303.540925 29.068336 443.133219a95.882658 95.882658 0 0 0 0 137.521085 1907.2614 1907.2614 0 0 0 202.871277 171.6246l358.569-192.229551z m1288.112976-116.916134a1911.011001 1911.011001 0 0 0-202.835566-171.696022l-358.569 192.586656c2.17834 15.676904 3.428207 31.603781 3.428207 47.994895 0 201.549989-164.411082 365.068309-366.996675 365.068309-91.775952 0-175.481333-33.74641-239.867341-89.240507l-225.226041 120.879998c138.806663 66.885742 297.075541 115.273452 465.057672 115.273452 421.419457 0 781.524008-303.432008 924.830192-443.309986a95.418421 95.418421 0 0 0 0.178552-137.556795zM1848.553359 31.85554a61.064933 61.064933 0 0 0-82.634067-24.497394l-1681.963937 902.618269a60.386434 60.386434 0 0 0-24.711657 82.13412c10.96312 20.426399 32.032307 31.853754 53.744283 31.853755 9.641831 0 19.605057-2.356892 28.818363-7.28494L1823.627439 114.061081a60.457854 60.457854 0 0 0 24.92592-82.205541z m0 0" fill="#fff" p-id="2163"></path></svg>